<?xml version="1.0" encoding="UTF-8"?>
<svg version="1.1" xmlns="http://www.w3.org/2000/svg" width="512" height="512">
<path d="M0 0 C1.36344334 -0.00346793 2.72688387 -0.00824002 4.09031868 -0.01418173 C7.79006702 -0.02656582 11.48957963 -0.02057973 15.18932819 -0.01122308 C19.19758415 -0.00438055 23.20580211 -0.01493936 27.21405029 -0.02316284 C35.04770911 -0.03644734 42.88128131 -0.03364613 50.71494341 -0.02492492 C57.08603147 -0.01812787 63.45709539 -0.01724036 69.82818604 -0.02049637 C71.19244506 -0.02118592 71.19244506 -0.02118592 72.58426487 -0.0218894 C74.4323659 -0.02284865 76.28046692 -0.02382129 78.12856793 -0.02480717 C95.42601653 -0.03334559 112.7234173 -0.0235513 130.02085805 -0.00740607 C144.83733425 0.0059957 159.65373992 0.00366717 174.47021484 -0.01016235 C191.70912015 -0.02624559 208.94798361 -0.03252176 226.18689537 -0.02332556 C228.02789687 -0.02236999 229.86889839 -0.02142688 231.7098999 -0.02049637 C232.61552079 -0.02003354 233.52114168 -0.01957072 234.45420563 -0.01909386 C240.81178621 -0.0165122 247.16934007 -0.02085714 253.5269165 -0.02793503 C261.2830619 -0.03638078 269.0391163 -0.03400559 276.79525137 -0.0180928 C280.74653469 -0.01025124 284.69766674 -0.00704747 288.64894867 -0.01704025 C292.27606908 -0.02607396 295.90290005 -0.02091411 299.52999473 -0.0051076 C301.44187262 -0.00024472 303.35377112 -0.00987804 305.26562691 -0.02027929 C333.07795717 0.16566716 357.15248179 12.22569324 377.33154297 30.88485718 C397.06215816 51.089766 407.30279211 77.52603036 407.1499939 105.61190796 C407.15346183 106.9753513 407.15823392 108.33879183 407.16417563 109.70222664 C407.17655971 113.40197498 407.17057363 117.10148759 407.16121697 120.80123615 C407.15437445 124.80949211 407.16493326 128.81771007 407.17315674 132.82595825 C407.18644124 140.65961707 407.18364002 148.49318927 407.17491882 156.32685137 C407.16812176 162.69793943 407.16723426 169.06900334 407.17049026 175.44009399 C407.17094996 176.34960001 407.17140966 177.25910603 407.17188329 178.19617283 C407.17284255 180.04427386 407.17381519 181.89237488 407.17480107 183.74047589 C407.18333948 201.03792449 407.17354519 218.33532526 407.15739997 235.63276601 C407.1439982 250.44924221 407.14632673 265.26564787 407.16015625 280.0821228 C407.17623949 297.32102811 407.18251565 314.55989157 407.17331946 331.79880333 C407.17236389 333.63980483 407.17142078 335.48080634 407.17049026 337.32180786 C407.17002744 338.22742875 407.16956461 339.13304964 407.16908776 340.06611359 C407.16650609 346.42369417 407.17085104 352.78124803 407.17792892 359.13882446 C407.18637468 366.89496985 407.18399949 374.65102425 407.16808669 382.40715933 C407.16024514 386.35844265 407.15704137 390.3095747 407.16703415 394.26085663 C407.17606785 397.88797704 407.170908 401.514808 407.15510149 405.14190269 C407.15023862 407.05378058 407.15987194 408.96567908 407.17027318 410.87753487 C406.98432674 438.68986513 394.92430066 462.76438975 376.26513672 482.94345093 C356.0602279 502.67406612 329.62396354 512.91470007 301.53808594 512.76190186 C300.17464259 512.76536978 298.81120207 512.77014188 297.44776726 512.77608359 C293.74801892 512.78846767 290.04850631 512.78248158 286.34875774 512.77312493 C282.34050178 512.76628241 278.33228382 512.77684121 274.32403564 512.7850647 C266.49037683 512.79834919 258.65680463 512.79554798 250.82314253 512.78682677 C244.45205447 512.78002972 238.08099055 512.77914221 231.7098999 512.78239822 C230.34564088 512.78308777 230.34564088 512.78308777 228.95382106 512.78379125 C227.10572004 512.7847505 225.25761902 512.78572315 223.409518 512.78670903 C206.11206941 512.79524744 188.81466864 512.78545315 171.51722789 512.76930793 C156.70075169 512.75590616 141.88434602 512.75823469 127.06787109 512.77206421 C109.82896579 512.78814745 92.59010233 512.79442361 75.35119057 512.78522742 C73.51018906 512.78427185 71.66918755 512.78332874 69.82818604 512.78239822 C68.92256514 512.7819354 68.01694425 512.78147257 67.08388031 512.78099572 C60.72629973 512.77841405 54.36874587 512.782759 48.01116943 512.78983688 C40.25502404 512.79828264 32.49896964 512.79590745 24.74283457 512.77999465 C20.79155125 512.7721531 16.8404192 512.76894933 12.88913727 512.77894211 C9.26201686 512.78797581 5.63518589 512.78281596 2.00809121 512.76700945 C0.09621331 512.76214657 -1.81568518 512.7717799 -3.72754097 512.78218114 C-31.53987123 512.5962347 -55.61439585 500.53620862 -75.79345703 481.87704468 C-95.52407222 461.67213585 -105.76470617 435.2358715 -105.61190796 407.1499939 C-105.61537589 405.78655055 -105.62014798 404.42311002 -105.62608969 403.05967522 C-105.63847378 399.35992687 -105.63248769 395.66041427 -105.62313104 391.9606657 C-105.61628851 387.95240974 -105.62684732 383.94419178 -105.6350708 379.9359436 C-105.6483553 372.10228479 -105.64555409 364.26871259 -105.63683288 356.43505049 C-105.63003583 350.06396243 -105.62914832 343.69289851 -105.63240433 337.32180786 C-105.63286403 336.41230184 -105.63332373 335.50279583 -105.63379735 334.56572902 C-105.63475661 332.717628 -105.63572925 330.86952698 -105.63671513 329.02142596 C-105.64525354 311.72397736 -105.63545925 294.4265766 -105.61931403 277.12913585 C-105.60591226 262.31265965 -105.60824079 247.49625398 -105.62207031 232.67977905 C-105.63815355 215.44087375 -105.64442972 198.20201028 -105.63523352 180.96309853 C-105.63427795 179.12209702 -105.63333484 177.28109551 -105.63240433 175.44009399 C-105.6319415 174.5344731 -105.63147867 173.62885221 -105.63100182 172.69578826 C-105.62842016 166.33820769 -105.6327651 159.98065383 -105.63984299 153.62307739 C-105.64828874 145.866932 -105.64591355 138.1108776 -105.63000076 130.35474253 C-105.6221592 126.40345921 -105.61895543 122.45232716 -105.62894821 118.50104523 C-105.63798192 114.87392481 -105.63282207 111.24709385 -105.61701556 107.61999917 C-105.61215268 105.70812127 -105.621786 103.79622278 -105.63218725 101.88436699 C-105.4462408 74.07203673 -93.38621472 49.99751211 -74.72705078 29.81845093 C-54.52214196 10.08783574 -28.0858776 -0.15279822 0 0 Z " fill="#00C3FE" transform="translate(105.23095703125,-0.380950927734375)"/>
<path d="M0 0 C26.915625 -0.061875 53.83125 -0.12375 81.5625 -0.1875 C94.27890015 -0.22846802 94.27890015 -0.22846802 107.25219727 -0.27026367 C117.65808105 -0.28381348 117.65808105 -0.28381348 122.53990173 -0.28633118 C125.92680336 -0.28910981 129.31356184 -0.3002866 132.70042419 -0.31672668 C137.03744535 -0.33749595 141.37426212 -0.34343843 145.71132839 -0.33921683 C147.29247845 -0.34009795 148.87363659 -0.34593229 150.4547435 -0.35764539 C179.99353246 -0.56608541 204.90062604 10.47361574 226.5625 30.50390625 C246.29311519 50.70881507 256.53374914 77.14507943 256.38095093 105.23095703 C256.38441886 106.59440038 256.38919095 107.9578409 256.39513266 109.32127571 C256.40751675 113.02102405 256.40153066 116.72053666 256.39217401 120.42028522 C256.38533148 124.42854118 256.39589029 128.43675914 256.40411377 132.44500732 C256.41739827 140.27866614 256.41459706 148.11223834 256.40587585 155.94590044 C256.39907879 162.3169885 256.39819129 168.68805242 256.4014473 175.05914307 C256.401907 175.96864908 256.40236669 176.8781551 256.40284032 177.81522191 C256.40379958 179.66332293 256.40477222 181.51142395 256.4057581 183.35952497 C256.41429651 200.65697356 256.40450222 217.95437433 256.388357 235.25181508 C256.37495523 250.06829128 256.37728376 264.88469695 256.39111328 279.70117188 C256.40719652 296.94007718 256.41347268 314.17894064 256.40427649 331.4178524 C256.40332092 333.25885391 256.40237781 335.09985542 256.4014473 336.94085693 C256.40098447 337.84647782 256.40052164 338.75209872 256.40004479 339.68516266 C256.39746312 346.04274324 256.40180807 352.4002971 256.40888596 358.75787354 C256.41733171 366.51401893 256.41495652 374.27007333 256.39904372 382.0262084 C256.39120217 385.97749172 256.3879984 389.92862377 256.39799118 393.8799057 C256.40702489 397.50702611 256.40186504 401.13385708 256.38605852 404.76095176 C256.38119565 406.67282966 256.39082897 408.58472815 256.40123022 410.49658394 C256.21528377 438.3089142 244.15525769 462.38343882 225.49609375 482.5625 C204.32754834 503.2341312 177.34395013 512.55739732 148.15063477 512.34057617 C146.52282731 512.33972747 144.89501871 512.34020978 143.26721191 512.34190369 C138.8983011 512.34275558 134.5296433 512.32526232 130.16079068 512.30418181 C125.57644044 512.28527878 120.99208279 512.28365393 116.40769958 512.28010559 C107.7489399 512.2708248 99.09029543 512.2462654 90.43158621 512.21605712 C78.71524306 512.17607896 66.99886784 512.16002615 55.28247356 512.14255047 C36.85489627 512.1144409 18.42756198 512.05464516 0 512 C0 462.17 0 412.34 0 361 C54.1875 360.75 54.1875 360.75 71.23120117 360.70214844 C76.31908792 360.6688858 76.31908792 360.6688858 81.40693665 360.63043213 C83.65466376 360.61591811 85.90244888 360.60905044 88.15022278 360.60845947 C105.98724709 360.77023171 105.98724709 360.77023171 123 356 C124.37148445 355.41795807 124.37148445 355.41795807 125.77067566 354.82415771 C141.31122377 347.91716023 150.68062119 334.99815952 156.96875 319.6328125 C161.39851759 306.46655882 160.35376637 290.65595264 155 278 C154.63777344 277.12214844 154.27554688 276.24429687 153.90234375 275.33984375 C146.80461141 259.77295281 134.14428201 250.37917811 118.6328125 244.03125 C112.40738753 241.9367145 106.31975191 241.72375044 99.8125 241.6875 C98.54720459 241.67916138 98.54720459 241.67916138 97.25634766 241.6706543 C91.84198527 241.73284558 87.2197797 242.59273394 82 244 C80.68 244 79.36 244 78 244 C77.72027344 243.06800781 77.44054687 242.13601562 77.15234375 241.17578125 C70.35484578 219.2547188 58.09457326 201.74979608 37.58203125 190.8203125 C25.06024981 184.38397648 14.71889309 183.10269901 0 181 C0 121.27 0 61.54 0 0 Z " fill="#00AAF0" transform="translate(256,0)"/>
<path d="M0 0 C7.66885653 6.35077181 13.29334594 14.15856419 18.25 22.71875 C18.600625 23.32211182 18.95125 23.92547363 19.3125 24.54711914 C20.87962821 27.34607015 21.75 29.02013216 21.75 32.28125 C22.37003906 32.12140625 22.99007812 31.9615625 23.62890625 31.796875 C45.57936802 28.17051586 67.55645682 33.69815224 85.75 46.28125 C100.27320227 57.55266765 110.5616541 72.54434658 115.75 90.28125 C115.75 91.60125 115.75 92.92125 115.75 94.28125 C116.38421875 94.0646875 117.0184375 93.848125 117.671875 93.625 C131.75086579 89.42463811 147.15459977 89.5409699 160.75 95.28125 C161.61625 95.631875 162.4825 95.9825 163.375 96.34375 C179.29598378 103.5081927 189.25868469 116.86295533 195.71875 132.6484375 C200.1506718 145.82109395 199.09679923 161.61777815 193.75 174.28125 C193.399375 175.1475 193.04875 176.01375 192.6875 176.90625 C185.6500876 192.54494423 172.283237 203.13872671 156.49672699 209.13747597 C147.59819666 211.91910332 138.72421332 211.70408773 129.50976562 211.66943359 C127.68364652 211.6735052 125.85752988 211.67885037 124.03141785 211.68536377 C119.09960763 211.69897312 114.16798691 211.6937652 109.23617363 211.68422651 C104.05901478 211.67659672 98.88187145 211.68368471 93.70471191 211.68838501 C85.01291002 211.69383292 76.32118477 211.6866763 67.62939453 211.67236328 C57.60062407 211.65603866 47.57203662 211.66132784 37.54327059 211.6778425 C28.91108532 211.69148488 20.27895494 211.69336358 11.64676237 211.68552649 C6.50062787 211.68086509 1.3545792 211.68018276 -3.79154968 211.69013596 C-8.63111059 211.69884349 -13.47043701 211.6927149 -18.30997276 211.67545319 C-20.07917073 211.67150849 -21.84838865 211.67258753 -23.61757851 211.67924118 C-39.29851149 211.73274833 -51.76274254 209.92879679 -63.765625 198.98828125 C-73.82521831 188.51231404 -77.86406917 175.89053329 -77.640625 161.515625 C-76.73543903 154.0206852 -74.13521044 146.12631117 -69.25 140.28125 C-70.68279297 139.84425781 -70.68279297 139.84425781 -72.14453125 139.3984375 C-84.33337685 135.57814754 -94.35116657 130.46532488 -104.25 122.28125 C-105.7659375 121.1365625 -105.7659375 121.1365625 -107.3125 119.96875 C-119.15286084 109.13607944 -125.91829812 95.4591273 -130.25 80.28125 C-130.4975 79.46527344 -130.745 78.64929688 -131 77.80859375 C-136.06228584 57.87584326 -131.18147997 37.45586349 -121.28027344 19.99365234 C-118.94994102 16.12044108 -116.20621402 12.68604376 -113.25 9.28125 C-112.486875 8.270625 -111.72375 7.26 -110.9375 6.21875 C-81.22472168 -26.2580077 -33.50523909 -25.59427986 0 0 Z " fill="#FEFEFE" transform="translate(218.25,149.71875)"/>
<path d="M0 0 C22.31617172 0 42.01598513 8.09952349 57.953125 23.76171875 C67.41464507 33.52740129 78 48.98364032 78 63 C78.63421875 62.7834375 79.2684375 62.566875 79.921875 62.34375 C94.00086579 58.14338811 109.40459977 58.2597199 123 64 C123.86625 64.350625 124.7325 64.70125 125.625 65.0625 C141.54598378 72.2269427 151.50868469 85.58170533 157.96875 101.3671875 C162.4006718 114.53984395 161.34679923 130.33652815 156 143 C155.649375 143.86625 155.29875 144.7325 154.9375 145.625 C148.24850224 160.48943946 135.8431977 170.80385229 121 177 C113.48249214 179.58422098 106.56763633 180.42678422 98.65356445 180.34057617 C97.56189815 180.34093778 96.47023184 180.34129938 95.34548473 180.34167194 C91.85122291 180.3394529 88.35745591 180.31670007 84.86328125 180.29296875 C82.69022858 180.28855167 80.51717272 180.28549498 78.34411621 180.28381348 C70.33352844 180.26815705 62.32300923 180.22627326 54.3125 180.1875 C36.389375 180.125625 18.46625 180.06375 0 180 C0 120.6 0 61.2 0 0 Z " fill="#F1F1F2" transform="translate(256,181)"/>
<path d="M0 0 C7.64838709 6.33382056 13.27901974 14.13345995 18.25 22.65625 C18.600625 23.25123291 18.95125 23.84621582 19.3125 24.45922852 C21.17550752 27.767851 21.75 29.37579796 21.75 33.28125 C20.72261719 33.57257813 19.69523438 33.86390625 18.63671875 34.1640625 C6.0382775 37.84464306 -4.07331282 42.87108211 -14.25 51.28125 C-15.08144531 51.920625 -15.91289062 52.56 -16.76953125 53.21875 C-29.96891602 64.19398647 -39.15268674 83.38174505 -41.25 100.28125 C-41.50192214 104.07068548 -41.66316006 107.86154672 -41.8125 111.65625 C-41.87727539 113.18958984 -41.87727539 113.18958984 -41.94335938 114.75390625 C-42.04887792 117.26290288 -42.15099213 119.77198943 -42.25 122.28125 C-43.28898437 122.75433594 -44.32796875 123.22742188 -45.3984375 123.71484375 C-53.40772757 127.47809448 -59.84656667 130.96695255 -65.84375 137.69140625 C-68.80429197 139.64747863 -70.70538371 139.4664913 -74.14013672 138.83032227 C-77.59875443 137.93024922 -80.80797964 136.68675838 -84.0625 135.21875 C-84.754646 134.91074463 -85.44679199 134.60273926 -86.15991211 134.28540039 C-92.45779407 131.37559638 -97.87751742 127.66787298 -103.25 123.28125 C-103.89195313 122.79011719 -104.53390625 122.29898438 -105.1953125 121.79296875 C-118.37873774 111.2994352 -125.73081788 96.11604047 -130.25 80.28125 C-130.4975 79.46527344 -130.745 78.64929688 -131 77.80859375 C-136.06228584 57.87584326 -131.18147997 37.45586349 -121.28027344 19.99365234 C-118.94994102 16.12044108 -116.20621402 12.68604376 -113.25 9.28125 C-112.486875 8.270625 -111.72375 7.26 -110.9375 6.21875 C-81.22472168 -26.2580077 -33.50523909 -25.59427986 0 0 Z " fill="#FEE984" transform="translate(218.25,149.71875)"/>
</svg>
